<svg width="15" height="3" viewBox="0 0 15 3" fill="none" xmlns="http://www.w3.org/2000/svg">
<path fill-rule="evenodd" clip-rule="evenodd" d="M0.976 0.0466705C0.5965 0.200375 0.28489 0.485367 0.098 0.849671C0.013 1.02367 0 1.10467 0 1.46967C0 1.85467 0.0100001 1.90867 0.117 2.12067C0.256 2.39367 0.562 2.69567 0.84 2.83167C1.014 2.91667 1.095 2.92967 1.46 2.92967C1.825 2.92967 1.906 2.91667 2.08 2.83167C2.358 2.69567 2.664 2.39367 2.803 2.12067C2.91 1.90867 2.92 1.85467 2.92 1.46967C2.92 1.10467 2.907 1.02367 2.822 0.849671C2.65994 0.545889 2.41379 0.295228 2.113 0.127671C1.915 0.0276709 1.831 0.0106704 1.502 0.00167045C1.249 -0.00532955 1.071 0.00967053 0.976 0.0466705ZM6.976 0.0466705C6.5965 0.200375 6.28489 0.485367 6.098 0.849671C6.013 1.02367 6 1.10467 6 1.46967C6 1.85467 6.01 1.90867 6.117 2.12067C6.256 2.39367 6.562 2.69567 6.84 2.83167C7.014 2.91667 7.095 2.92967 7.46 2.92967C7.825 2.92967 7.906 2.91667 8.08 2.83167C8.358 2.69567 8.664 2.39367 8.803 2.12067C8.91 1.90867 8.92 1.85467 8.92 1.46967C8.92 1.10467 8.907 1.02367 8.822 0.849671C8.65994 0.545889 8.41379 0.295228 8.113 0.127671C7.915 0.0276709 7.831 0.0106704 7.502 0.00167045C7.249 -0.00532955 7.071 0.00967053 6.976 0.0466705ZM12.976 0.0466705C12.5965 0.200375 12.2849 0.485367 12.098 0.849671C12.013 1.02367 12 1.10467 12 1.46967C12 1.85467 12.01 1.90867 12.117 2.12067C12.256 2.39367 12.562 2.69567 12.84 2.83167C13.014 2.91667 13.095 2.92967 13.46 2.92967C13.825 2.92967 13.906 2.91667 14.08 2.83167C14.358 2.69567 14.664 2.39367 14.803 2.12067C14.91 1.90867 14.92 1.85467 14.92 1.46967C14.92 1.10467 14.907 1.02367 14.822 0.849671C14.6599 0.545889 14.4138 0.295228 14.113 0.127671C13.915 0.0276709 13.831 0.0106704 13.502 0.00167045C13.249 -0.00532955 13.071 0.00967053 12.976 0.0466705Z" fill="white" fill-opacity="0.5"/>
</svg>
